<svg width="22" height="22" viewBox="0 0 22 22" fill="none" xmlns="http://www.w3.org/2000/svg">
<path d="M11 19.25C12.9087 19.25 14.7583 18.5882 16.2337 17.3773C17.7092 16.1665 18.7191 14.4815 19.0915 12.6095C19.4638 10.7375 19.1756 8.79428 18.2759 7.11098C17.3761 5.42767 15.9205 4.10842 14.1571 3.37799C12.3937 2.64757 10.4316 2.55118 8.60515 3.10524C6.77866 3.6593 5.20078 4.82953 4.14038 6.41654C3.07997 8.00355 2.60264 9.90915 2.78973 11.8086C2.97681 13.7081 3.81673 15.484 5.16637 16.8336" stroke="white" stroke-width="2" stroke-linecap="round"/>
<path d="M14.6666 9.16675L11.4853 12.9843C10.8298 13.771 10.502 14.1643 10.0614 14.1843C9.62084 14.2043 9.25879 13.8422 8.53468 13.1181L7.33329 11.9167" stroke="white" stroke-width="2" stroke-linecap="round"/>
</svg>
