<svg width="15" height="15" viewBox="0 0 15 15" fill="none" xmlns="http://www.w3.org/2000/svg">
<g clip-path="url(#clip0_511_1317)">
<path d="M11.4375 2.50005H9.77083V3.75005C9.77083 3.87043 9.74712 3.98963 9.70105 4.10084C9.65499 4.21206 9.58747 4.31311 9.50234 4.39823C9.41722 4.48335 9.31617 4.55087 9.20496 4.59694C9.09374 4.643 8.97454 4.66671 8.85416 4.66671C8.73378 4.66671 8.61458 4.643 8.50337 4.59694C8.39215 4.55087 8.2911 4.48335 8.20598 4.39823C8.12086 4.31311 8.05334 4.21206 8.00727 4.10084C7.96121 3.98963 7.9375 3.87043 7.9375 3.75005V2.50005H3.08333V3.75005C3.08333 3.99316 2.98675 4.22632 2.81484 4.39823C2.64294 4.57014 2.40978 4.66671 2.16666 4.66671C1.92355 4.66671 1.69039 4.57014 1.51848 4.39823C1.34657 4.22632 1.25 3.99316 1.25 3.75005V2.50005H-0.416671C-0.515828 2.49892 -0.614205 2.51769 -0.705982 2.55524C-0.79776 2.59279 -0.881075 2.64837 -0.950999 2.71868C-1.02092 2.789 -1.07604 2.87262 -1.11308 2.9646C-1.15013 3.05659 -1.16835 3.15507 -1.16667 3.25421V12.5792C-1.16833 12.6766 -1.15078 12.7734 -1.11503 12.864C-1.07928 12.9546 -1.02602 13.0373 -0.958312 13.1073C-0.8906 13.1774 -0.809755 13.2334 -0.720394 13.2722C-0.631032 13.311 -0.534906 13.3318 -0.437505 13.3334H11.4375C11.5349 13.3318 11.631 13.311 11.7204 13.2722C11.8097 13.2334 11.8906 13.1774 11.9583 13.1073C12.026 13.0373 12.0793 12.9546 12.115 12.864C12.1508 12.7734 12.1683 12.6766 12.1667 12.5792V3.25421C12.1683 3.15681 12.1508 3.06004 12.115 2.96942C12.0793 2.87881 12.026 2.79612 11.9583 2.72609C11.8906 2.65605 11.8097 2.60004 11.7204 2.56126C11.631 2.52248 11.5349 2.50168 11.4375 2.50005ZM2.16666 10.8334H1.33333V10H2.16666V10.8334ZM2.16666 8.75005H1.33333V7.91672H2.16666V8.75005ZM2.16666 6.66672H1.33333V5.83338H2.16666V6.66672ZM4.66666 10.8334H3.83333V10H4.66666V10.8334ZM4.66666 8.75005H3.83333V7.91672H4.66666V8.75005ZM4.66666 6.66672H3.83333V5.83338H4.66666V6.66672ZM7.16666 10.8334H6.33333V10H7.16666V10.8334ZM7.16666 8.75005H6.33333V7.91672H7.16666V8.75005ZM7.16666 6.66672H6.33333V5.83338H7.16666V6.66672ZM9.66666 10.8334H8.83333V10H9.66666V10.8334ZM9.66666 8.75005H8.83333V7.91672H9.66666V8.75005ZM9.66666 6.66672H8.83333V5.83338H9.66666V6.66672Z" fill="black"/>
<path d="M4.16667 4.16659C4.27717 4.16659 4.38315 4.12269 4.46129 4.04455C4.53943 3.96641 4.58333 3.86043 4.58333 3.74992V1.24992C4.58333 1.13941 4.53943 1.03343 4.46129 0.955291C4.38315 0.877151 4.27717 0.833252 4.16667 0.833252C4.05616 0.833252 3.95018 0.877151 3.87204 0.955291C3.7939 1.03343 3.75 1.13941 3.75 1.24992V3.74992C3.75 3.86043 3.7939 3.96641 3.87204 4.04455C3.95018 4.12269 4.05616 4.16659 4.16667 4.16659Z" fill="black"/>
<path d="M10.8333 4.16659C10.9438 4.16659 11.0498 4.12269 11.128 4.04455C11.2061 3.96641 11.25 3.86043 11.25 3.74992V1.24992C11.25 1.13941 11.2061 1.03343 11.128 0.955291C11.0498 0.877151 10.9438 0.833252 10.8333 0.833252C10.7228 0.833252 10.6168 0.877151 10.5387 0.955291C10.4606 1.03343 10.4167 1.13941 10.4167 1.24992V3.74992C10.4167 3.86043 10.4606 3.96641 10.5387 4.04455C10.6168 4.12269 10.7228 4.16659 10.8333 4.16659Z" fill="black"/>
</g>
<defs>
<clipPath id="clip0_511_1317">
<rect width="15" height="15" fill="white"/>
</clipPath>
</defs>
</svg>
