<svg width="13" height="15" viewBox="0 0 13 15" fill="none" xmlns="http://www.w3.org/2000/svg">
<path d="M10.25 1.25H2.75C2.41848 1.25 2.10054 1.3817 1.86612 1.61612C1.6317 1.85054 1.5 2.16848 1.5 2.5V12.5C1.5 12.8315 1.6317 13.1495 1.86612 13.3839C2.10054 13.6183 2.41848 13.75 2.75 13.75H10.25C10.5815 13.75 10.8995 13.6183 11.1339 13.3839C11.3683 13.1495 11.5 12.8315 11.5 12.5V2.5C11.5 2.16848 11.3683 1.85054 11.1339 1.61612C10.8995 1.3817 10.5815 1.25 10.25 1.25Z" stroke="black" stroke-width="2" stroke-linecap="round" stroke-linejoin="round"/>
<path d="M4.625 10L4.8425 9.85C5.75812 9.21688 7.2425 9.21688 8.1575 9.85L8.375 10M4 4.375H4.00625M9 4.375H9.00625M6.5 4.375H6.50625M6.5 6.875H6.50625M9 6.875H9.00625M4 6.875H4.00625M5.25 13.75V9.6875M7.75 9.6875V13.75" stroke="black" stroke-width="2" stroke-linecap="round" stroke-linejoin="round"/>
</svg>
