<svg width="12" height="16" viewBox="0 0 12 16" fill="none" xmlns="http://www.w3.org/2000/svg">
<path d="M8.70923 2.65683L6.04256 0L3.43263 2.65683L3.48937 15.941H8.19859L8.70923 2.65683Z" fill="#5E5E5E"/>
<path d="M6.55321 5.5498L7.34753 6.25829V7.97047L6.55321 7.32102V5.5498Z" fill="white"/>
<path d="M6.55321 7.67529L7.34753 8.38378V10.096L6.55321 9.44651V7.67529Z" fill="white"/>
<path d="M6.55321 9.80078L7.34753 10.5093V12.2214L6.55321 11.572V9.80078Z" fill="white"/>
<path d="M6.55321 11.9263L7.34753 12.6348V14.3469L6.55321 13.6975V11.9263Z" fill="white"/>
<path d="M7.68797 12.7527L8.4823 13.4612V15.1733L7.68797 14.5239V12.7527Z" fill="white"/>
<path d="M7.68797 10.6272L8.4823 11.3357V13.0479L7.68797 12.3984V10.6272Z" fill="white"/>
<path d="M7.68797 8.50195L8.4823 9.21044V10.9226L7.68797 10.2732V8.50195Z" fill="white"/>
<path d="M7.46104 6.37646L8.25537 7.08495V8.79713L7.46104 8.14768V6.37646Z" fill="white"/>
<path d="M3.71634 4.72322L4.62415 4.13281V5.72691L3.71634 6.25827L3.71634 4.72322Z" fill="white"/>
<path d="M3.71634 6.73054L4.62415 6.14014V7.73423L3.71634 8.2656L3.71634 6.73054Z" fill="white"/>
<path d="M3.71634 8.73811L4.62415 8.14771V9.7418L3.71634 10.2732L3.71634 8.73811Z" fill="white"/>
<path d="M3.71634 10.7454L4.62415 10.155V11.7491L3.71634 12.2805L3.71634 10.7454Z" fill="white"/>
<path d="M7.57445 4.3689L8.36877 5.07738V6.78956L7.57445 6.14011V4.3689Z" fill="white"/>
<path d="M2.52241 4.25098L4.65247 6.38167L3.53139 15.941H0.595728L-1.62125e-05 6.38167L2.52241 4.25098Z" fill="white"/>
<path d="M2.52241 4.25098L4.65247 6.38167L3.53139 15.941H0.595728L-1.62125e-05 6.38167L2.52241 4.25098Z" fill="#5E5E5E"/>
<path d="M9.86995 4.13281L12 6.26351L11.5 16H8L7.34752 6.26351L9.86995 4.13281Z" fill="#5E5E5E"/>
<path d="M6.43968 1.18091L7.23401 1.8894V3.60157L6.43968 2.95213V1.18091Z" fill="white"/>
<path d="M6.55321 3.42432L7.34753 4.1328V5.84498L6.55321 5.19553V3.42432Z" fill="white"/>
<path d="M7.46104 2.00732L8.25537 2.71581V4.42799L7.46104 3.77854V2.00732Z" fill="white"/>
<path d="M10.071 5.43164L10.7518 5.95005V7.20286L10.071 6.72765V5.43164Z" fill="white"/>
<path d="M10.1844 7.32104L10.8652 7.80489V8.97418L10.1844 8.53066V7.32104Z" fill="white"/>
<path d="M10.2979 9.21045L10.7518 9.62517V10.6274L10.2979 10.2473V9.21045Z" fill="white"/>
<path d="M10.2979 10.8635L10.7518 11.2782V12.2805L10.2979 11.9003V10.8635Z" fill="white"/>
<path d="M11.0922 6.14014L11.6595 6.65854V7.91135L11.0922 7.43615V6.14014Z" fill="white"/>
<path d="M11.0922 7.91138L11.6595 8.39522V9.56451L11.0922 9.12099V7.91138Z" fill="white"/>
<path d="M10.9788 9.80078L11.5461 10.2155V11.2178L10.9788 10.8376V9.80078Z" fill="white"/>
<path d="M10.9788 11.4539L11.5461 11.8686V12.8708L10.9788 12.4907V11.4539Z" fill="white"/>
<path d="M4.90775 1.94839L5.81555 1.12183V2.89304L4.90775 3.54249V1.94839Z" fill="white"/>
<path d="M4.90775 3.89676L5.81555 3.24731V5.01853L4.90775 5.5499V3.89676Z" fill="white"/>
<path d="M4.90775 5.90417L5.81555 5.3728V7.08498L4.90775 7.5573V5.90417Z" fill="white"/>
<path d="M4.90775 8.02941L5.81555 7.49805V9.21022L4.90775 9.68255V8.02941Z" fill="white"/>
<path d="M4.90775 10.1549L5.81555 9.62354V11.3357L4.90775 11.808V10.1549Z" fill="white"/>
<path d="M4.90775 12.2804L5.81555 11.749V13.4612L4.90775 13.9335V12.2804Z" fill="white"/>
<path d="M3.71634 2.89158L4.62415 2.12549V3.7671L3.71634 4.36903L3.71634 2.89158Z" fill="white"/>
<path d="M8.82269 5.881L9.50354 5.19556V6.66437L8.82269 7.20294V5.881Z" fill="white"/>
<path d="M8.87945 7.5572L9.50357 6.9668L9.5603 8.50185L8.93619 8.8561L8.87945 7.5572Z" fill="white"/>
<path d="M8.93619 9.21044L9.50357 8.8562L9.5603 10.0961L8.93619 10.4503V9.21044Z" fill="white"/>
<path d="M8.93619 9.21044L9.50357 8.8562L9.5603 10.0961L8.93619 10.4503V9.21044Z" fill="white"/>
<path d="M9.04969 11.1784L9.56549 10.8635L9.61707 11.9656L9.04969 12.2805V11.1784Z" fill="white"/>
<path d="M7.85811 6.61262L8.5957 6.02222V7.40463L7.85811 7.85248V6.61262Z" fill="white"/>
<path d="M8.02838 8.2067L8.65249 7.73438L8.70923 8.97135L8.02838 9.38751V8.2067Z" fill="white"/>
<path d="M8.02838 9.74165L8.70923 9.32837V10.5682L8.14185 10.9225L8.02838 9.74165Z" fill="white"/>
<path d="M8.25538 11.5851L8.82275 11.2178V12.3199L8.34994 12.6347L8.25538 11.5851Z" fill="white"/>
<path d="M2.79276 5.52519L3.4158 6.08348L3.32294 7.30061L2.6967 6.78429L2.79276 5.52519Z" fill="white"/>
<path d="M2.76298 7.36967L3.38858 7.89438L3.30191 9.03037L2.67332 8.54484L2.76298 7.36967Z" fill="white"/>
<path d="M2.73322 9.2143L3.14345 9.65365L3.06917 10.6274L2.65637 10.2216L2.73322 9.2143Z" fill="white"/>
<path d="M2.61066 10.8205L3.0209 11.2598L2.94661 12.2336L2.53381 11.8278L2.61066 10.8205Z" fill="white"/>
<path d="M3.73247 6.29553L4.24527 6.84471L4.15241 8.06184L3.63641 7.55463L3.73247 6.29553Z" fill="white"/>
<path d="M3.60113 8.01623L4.11648 8.53183L4.02981 9.66783L3.51147 9.19139L3.60113 8.01623Z" fill="white"/>
<path d="M3.35088 9.84265L3.87136 10.2911L3.79707 11.2648L3.27403 10.8499L3.35088 9.84265Z" fill="white"/>
<path d="M3.22832 11.4486L3.7488 11.8971L3.67451 12.8708L3.15147 12.4559L3.22832 11.4486Z" fill="white"/>
<path d="M1.54677 5.86153L2.25903 5.25024L2.15016 6.67723L1.44878 7.14581L1.54677 5.86153Z" fill="white"/>
<path d="M1.47764 7.49453L2.12774 6.97103L2.06908 8.46693L1.43649 8.76099L1.47764 7.49453Z" fill="white"/>
<path d="M1.41025 9.1051L1.98772 8.80648L1.95095 10.0156L1.31835 10.3096L1.41025 9.1051Z" fill="white"/>
<path d="M1.37466 11.0262L1.89911 10.7617L1.86753 11.8366L1.29297 12.097L1.37466 11.0262Z" fill="white"/>
<path d="M0.555574 6.49486L1.31592 5.98047L1.21345 7.32351L0.463675 7.69941L0.555574 6.49486Z" fill="white"/>
<path d="M0.602724 8.05706L1.24407 7.64828L1.20751 8.85458L0.515202 9.20424L0.602724 8.05706Z" fill="white"/>
<path d="M0.488936 9.54853L1.18103 9.20166L1.08913 10.4062L0.511657 10.7048L0.488936 9.54853Z" fill="white"/>
<path d="M0.572798 11.3575L1.15125 11.0461L1.06956 12.1168L0.58687 12.3848L0.572798 11.3575Z" fill="white"/>
</svg>
