<svg width="16" height="16" viewBox="0 0 16 16" fill="none" xmlns="http://www.w3.org/2000/svg">
<path d="M0.666687 6.00009L2.00002 7.33342C5.31335 4.02009 10.6867 4.02009 14 7.33342L15.3334 6.00009C11.2867 1.95342 4.72002 1.95342 0.666687 6.00009ZM6.00002 11.3334L8.00002 13.3334L10 11.3334C9.73763 11.0703 9.42591 10.8616 9.08271 10.7192C8.73952 10.5767 8.37159 10.5034 8.00002 10.5034C7.62845 10.5034 7.26052 10.5767 6.91733 10.7192C6.57413 10.8616 6.26241 11.0703 6.00002 11.3334ZM3.33335 8.66675L4.66669 10.0001C5.551 9.11651 6.74994 8.62018 8.00002 8.62018C9.2501 8.62018 10.449 9.11651 11.3334 10.0001L12.6667 8.66675C10.0934 6.09342 5.91335 6.09342 3.33335 8.66675Z" fill="black"/>
</svg>
