<svg width="15" height="15" viewBox="0 0 15 15" fill="none" xmlns="http://www.w3.org/2000/svg">
<path d="M10 3.75V7.5C10 8.1875 10.5625 8.75 11.25 8.75H11.875V13.125C11.875 13.4688 12.1562 13.75 12.5 13.75C12.8438 13.75 13.125 13.4688 13.125 13.125V1.95625C13.125 1.55 12.7438 1.25 12.35 1.34375C11 1.675 10 2.81875 10 3.75ZM6.875 5.625H5.625V1.875C5.625 1.53125 5.34375 1.25 5 1.25C4.65625 1.25 4.375 1.53125 4.375 1.875V5.625H3.125V1.875C3.125 1.53125 2.84375 1.25 2.5 1.25C2.15625 1.25 1.875 1.53125 1.875 1.875V5.625C1.875 7.00625 2.99375 8.125 4.375 8.125V13.125C4.375 13.4688 4.65625 13.75 5 13.75C5.34375 13.75 5.625 13.4688 5.625 13.125V8.125C7.00625 8.125 8.125 7.00625 8.125 5.625V1.875C8.125 1.53125 7.84375 1.25 7.5 1.25C7.15625 1.25 6.875 1.53125 6.875 1.875V5.625Z" fill="black"/>
</svg>
