<svg width="20" height="20" viewBox="0 0 20 20" fill="none" xmlns="http://www.w3.org/2000/svg">
<path d="M15.8333 5.83341H9.16668V11.6667H2.50001V4.16675H0.833344V16.6667H2.50001V14.1667H17.5V16.6667H19.1667V9.16675C19.1667 8.28269 18.8155 7.43485 18.1904 6.80973C17.5652 6.1846 16.7174 5.83341 15.8333 5.83341ZM5.83334 10.8334C6.49639 10.8334 7.13227 10.57 7.60111 10.1012C8.06995 9.63234 8.33334 8.99646 8.33334 8.33341C8.33334 7.67037 8.06995 7.03449 7.60111 6.56565C7.13227 6.09681 6.49639 5.83341 5.83334 5.83341C5.1703 5.83341 4.53442 6.09681 4.06558 6.56565C3.59674 7.03449 3.33334 7.67037 3.33334 8.33341C3.33334 8.99646 3.59674 9.63234 4.06558 10.1012C4.53442 10.57 5.1703 10.8334 5.83334 10.8334Z" fill="black"/>
</svg>
