<svg width="17" height="17" viewBox="0 0 17 17" fill="none" xmlns="http://www.w3.org/2000/svg">
<path d="M10.625 9.20825H11.6875V11.2058L13.4158 12.2045L12.8846 13.1253L10.625 11.822V9.20825ZM13.4583 5.66658H3.54167V13.4583H6.84958C6.545 12.8137 6.375 12.0912 6.375 11.3333C6.375 10.0182 6.89739 8.75705 7.82726 7.82718C8.75713 6.89731 10.0183 6.37492 11.3333 6.37492C12.0913 6.37492 12.8138 6.54492 13.4583 6.8495V5.66658ZM3.54167 14.8749C3.16594 14.8749 2.80561 14.7257 2.53993 14.46C2.27426 14.1943 2.125 13.834 2.125 13.4583V3.54159C2.125 2.75534 2.75542 2.12492 3.54167 2.12492H4.25V0.708252H5.66667V2.12492H11.3333V0.708252H12.75V2.12492H13.4583C13.8341 2.12492 14.1944 2.27417 14.4601 2.53985C14.7257 2.80553 14.875 3.16586 14.875 3.54159V7.86242C15.7533 8.75492 16.2917 9.98034 16.2917 11.3333C16.2917 12.6483 15.7693 13.9095 14.8394 14.8393C13.9095 15.7692 12.6484 16.2916 11.3333 16.2916C9.98042 16.2916 8.755 15.7533 7.8625 14.8749H3.54167ZM11.3333 7.89783C10.4222 7.89783 9.54839 8.25978 8.90413 8.90405C8.25986 9.54831 7.89792 10.4221 7.89792 11.3333C7.89792 13.2316 9.435 14.7687 11.3333 14.7687C11.7845 14.7687 12.2312 14.6798 12.648 14.5072C13.0648 14.3345 13.4435 14.0815 13.7625 13.7625C14.0815 13.4434 14.3346 13.0647 14.5072 12.6479C14.6799 12.2311 14.7688 11.7844 14.7688 11.3333C14.7688 9.43492 13.2317 7.89783 11.3333 7.89783Z" fill="black"/>
</svg>
