<svg width="15" height="15" viewBox="0 0 15 15" fill="none" xmlns="http://www.w3.org/2000/svg">
<g clip-path="url(#clip0_511_1330)">
<path d="M6.5 1.25C7.99184 1.25 9.42258 1.84263 10.4775 2.89752C11.5324 3.95242 12.125 5.38316 12.125 6.875C12.125 8.79625 11.0775 10.3688 9.97375 11.4969C9.4222 12.0543 8.82049 12.5598 8.17625 13.0069L7.91 13.1881L7.785 13.2712L7.54938 13.4213L7.33938 13.5494L7.07938 13.7006C6.90282 13.8011 6.70316 13.854 6.5 13.854C6.29684 13.854 6.09718 13.8011 5.92062 13.7006L5.66062 13.5494L5.33563 13.3494L5.21562 13.2712L4.95937 13.1006C4.26436 12.6302 3.61692 12.0931 3.02625 11.4969C1.9225 10.3675 0.875 8.79625 0.875 6.875C0.875 5.38316 1.46763 3.95242 2.52252 2.89752C3.57742 1.84263 5.00816 1.25 6.5 1.25ZM6.5 5C6.25377 5 6.00995 5.0485 5.78247 5.14273C5.55498 5.23695 5.34828 5.37506 5.17417 5.54917C5.00006 5.72328 4.86195 5.92998 4.76773 6.15747C4.6735 6.38495 4.625 6.62877 4.625 6.875C4.625 7.12123 4.6735 7.36505 4.76773 7.59253C4.86195 7.82002 5.00006 8.02672 5.17417 8.20083C5.34828 8.37494 5.55498 8.51305 5.78247 8.60727C6.00995 8.7015 6.25377 8.75 6.5 8.75C6.99728 8.75 7.47419 8.55246 7.82583 8.20083C8.17746 7.84919 8.375 7.37228 8.375 6.875C8.375 6.37772 8.17746 5.90081 7.82583 5.54917C7.47419 5.19754 6.99728 5 6.5 5Z" fill="black"/>
</g>
<defs>
<clipPath id="clip0_511_1330">
<rect width="15" height="15" fill="white"/>
</clipPath>
</defs>
</svg>
