<svg width="18" height="18" viewBox="0 0 18 18" fill="none" xmlns="http://www.w3.org/2000/svg">
<path d="M14.25 6.75H15.25H14.25ZM9.39746 13.3008L9.86747 14.1834L9.86763 14.1834L9.39746 13.3008ZM8.60254 13.3008L8.13237 14.1834L8.13253 14.1834L8.60254 13.3008ZM3.75 6.75H2.75H3.75ZM9 1.5V2.5C11.3472 2.5 13.25 4.40279 13.25 6.75H14.25H15.25C15.25 3.29822 12.4518 0.5 9 0.5V1.5ZM14.25 6.75H13.25C13.25 8.2265 12.5206 9.46545 11.563 10.4582C10.605 11.4513 9.4934 12.1166 8.92729 12.4182L9.39746 13.3008L9.86763 14.1834C10.5255 13.8329 11.8401 13.0516 13.0024 11.8467C14.1651 10.6414 15.25 8.93096 15.25 6.75H14.25ZM9.39746 13.3008L8.92745 12.4181C8.94502 12.4088 8.97035 12.4012 9 12.4012C9.02965 12.4012 9.05498 12.4088 9.07255 12.4181L8.60254 13.3008L8.13253 14.1834C8.67767 14.4737 9.32233 14.4737 9.86747 14.1834L9.39746 13.3008ZM8.60254 13.3008L9.07271 12.4182C8.5066 12.1166 7.39499 11.4513 6.437 10.4582C5.47941 9.46545 4.75 8.2265 4.75 6.75H3.75H2.75C2.75 8.93096 3.83488 10.6414 4.99756 11.8467C6.15985 13.0516 7.47452 13.8329 8.13237 14.1834L8.60254 13.3008ZM3.75 6.75H4.75C4.75 4.40279 6.65279 2.5 9 2.5V1.5V0.5C5.54822 0.5 2.75 3.29822 2.75 6.75H3.75ZM9 4.5V3.5C7.20507 3.5 5.75 4.95507 5.75 6.75H6.75H7.75C7.75 6.05964 8.30964 5.5 9 5.5V4.5ZM6.75 6.75H5.75C5.75 8.54493 7.20507 10 9 10V9V8C8.30964 8 7.75 7.44036 7.75 6.75H6.75ZM9 9V10C10.7949 10 12.25 8.54493 12.25 6.75H11.25H10.25C10.25 7.44036 9.69036 8 9 8V9ZM11.25 6.75H12.25C12.25 4.95507 10.7949 3.5 9 3.5V4.5V5.5C9.69036 5.5 10.25 6.05964 10.25 6.75H11.25Z" fill="#33363F"/>
<path d="M14.8457 13.125C15.4381 13.467 15.75 13.855 15.75 14.25C15.75 14.645 15.4381 15.033 14.8457 15.375C14.2532 15.717 13.4011 16.0011 12.375 16.1986C11.3489 16.396 10.1849 16.5 9 16.5C7.81513 16.5 6.65113 16.396 5.625 16.1986C4.59887 16.0011 3.74677 15.717 3.15433 15.375C2.56189 15.033 2.25 14.645 2.25 14.25C2.25 13.855 2.56189 13.467 3.15433 13.125" stroke="#33363F" stroke-width="2" stroke-linecap="round"/>
</svg>
