<svg width="18" height="18" viewBox="0 0 18 18" fill="none" xmlns="http://www.w3.org/2000/svg">
<path d="M10.2857 5.78568C11.7059 5.78568 12.8572 4.63441 12.8572 3.21425C12.8572 1.79409 11.7059 0.642822 10.2857 0.642822C8.86556 0.642822 7.71429 1.79409 7.71429 3.21425C7.71429 4.63441 8.86556 5.78568 10.2857 5.78568Z" stroke="black" stroke-linecap="round" stroke-linejoin="round"/>
<path d="M10.2857 5.78564V10.9285H14.1429C14.4839 10.9285 14.8109 11.064 15.052 11.3051C15.2931 11.5462 15.4286 11.8732 15.4286 12.2142V17.3571M7.07143 8.35707C6.25913 8.3579 5.4622 8.57857 4.76518 8.9957C4.06816 9.41283 3.49705 10.0108 3.11242 10.7263C2.7278 11.4418 2.54401 12.248 2.58054 13.0595C2.61708 13.871 2.87259 14.6574 3.31996 15.3354C3.76734 16.0134 4.38989 16.5577 5.12158 16.9105C5.85326 17.2633 6.6668 17.4115 7.47589 17.3393C8.28497 17.2671 9.05943 16.9772 9.71711 16.5005C10.3748 16.0237 10.8912 15.3779 11.2114 14.6314" stroke="black" stroke-linecap="round" stroke-linejoin="round"/>
</svg>
