<svg width="16" height="17" viewBox="0 0 16 17" fill="none" xmlns="http://www.w3.org/2000/svg">
<path d="M6 7V7C6 5.89543 6.89543 5 8 5V5C9.10457 5 10 5.89543 10 7V7" stroke="white" stroke-linejoin="round"/>
<path d="M10.1055 7.31543C11.2098 7.31554 12.1053 8.21109 12.1055 9.31543V12.2627C12.1055 13.3672 11.2099 14.2626 10.1055 14.2627H6C4.89543 14.2627 4 13.3673 4 12.2627V9.31543C4.00019 8.21103 4.89555 7.31543 6 7.31543H10.1055ZM6.02637 8.8418C5.75033 8.8418 5.52653 9.0658 5.52637 9.3418C5.52637 9.61794 5.75022 9.8418 6.02637 9.8418H10.0791L10.1797 9.83203C10.4076 9.78542 10.5791 9.58344 10.5791 9.3418C10.579 9.10025 10.4075 8.89811 10.1797 8.85156L10.0791 8.8418H6.02637Z" fill="white"/>
<path d="M5 15H6.8V15.1C6.8 15.5971 6.39706 16 5.9 16C5.40294 16 5 15.5971 5 15.1V15Z" fill="white"/>
<path d="M9.2 15H11V15.1C11 15.5971 10.5971 16 10.1 16C9.60294 16 9.2 15.5971 9.2 15.1V15Z" fill="white"/>
</svg>
