<svg width="18" height="14" viewBox="0 0 18 14" fill="none" xmlns="http://www.w3.org/2000/svg">
<path d="M2.81297 0C2.06692 0 1.35143 0.307291 0.8239 0.854272C0.296366 1.40125 0 2.14312 0 2.91667V3.5H18V2.91667C18 2.14312 17.7036 1.40125 17.1761 0.854272C16.6486 0.307291 15.9331 0 15.187 0H2.81297ZM0 11.0833V4.66667H18V11.0833C18 11.8569 17.7036 12.5987 17.1761 13.1457C16.6486 13.6927 15.9331 14 15.187 14H2.81372C2.06767 14 1.35218 13.6927 0.82465 13.1457C0.297116 12.5987 0.00075025 11.8569 0.00075025 11.0833H0ZM12.1865 8.94444C12.0373 8.94444 11.8942 9.0059 11.7887 9.1153C11.6832 9.22469 11.6239 9.37307 11.6239 9.52778C11.6239 9.68249 11.6832 9.83086 11.7887 9.94026C11.8942 10.0497 12.0373 10.1111 12.1865 10.1111H14.812C14.9612 10.1111 15.1043 10.0497 15.2098 9.94026C15.3153 9.83086 15.3746 9.68249 15.3746 9.52778C15.3746 9.37307 15.3153 9.22469 15.2098 9.1153C15.1043 9.0059 14.9612 8.94444 14.812 8.94444H12.1865Z" fill="black"/>
</svg>
